# xmcd
#
# Track frame offsets:
#	150
#	12000
#	18865
#	30705
#	44783
#	59874
#	77661
#	87098
#	105859
#	121344
#	127198
#	137322
#	144498
#	152455
#	161944
#	177115
#	186799
#	193114
#	196340
#
# Disc length: 2733 seconds
#
# Revision: 1
# Processed by: cddbd v1.5.2PL0 Copyright (c) Steve Scherf et al.
# Submitted via: audiograbber 1.83.01
#
DISCID=fb0aab13
DTITLE=The Duttons - Season's Greetings
DYEAR=2003
DGENRE=Folk
TTITLE0=Santa Claus Is Coming To Town
TTITLE1=Carol Of The Bells
TTITLE2=Beautiful Star Of Bethlehem
TTITLE3=Christmas Blues
TTITLE4=The Gift
TTITLE5=Devil Went Up To The North Pole - LIVE
TTITLE6=Santa Looked A Lot Like Daddy
TTITLE7=Jesu, Joy Of Man's Desiring
TTITLE8=Hanukkah's Child
TTITLE9=Up On The Housetop
TTITLE10=Go Tell It On The Mountain
TTITLE11=Jingle Bells
TTITLE12=Winter Wonderland
TTITLE13=Hangin' Around The Mistletoe
TTITLE14=Silent Night
TTITLE15=Rockin' Around The Christmas Tree
TTITLE16=Feliz Navidad/ La Bamba
TTITLE17=I'll Be Home For Christmas
TTITLE18=Jingle Bell Rock
EXTD=
EXTT0=
EXTT1=
EXTT2=
EXTT3=
EXTT4=
EXTT5=
EXTT6=
EXTT7=
EXTT8=
EXTT9=
EXTT10=
EXTT11=
EXTT12=
EXTT13=
EXTT14=
EXTT15=
EXTT16=
EXTT17=
EXTT18=
PLAYORDER=
